HIERARCHY
ROOT hip
{
	OFFSET 0.000000 0.000000 0.000000 
	CHANNELS 6 Xposition Yposition Zposition Xrotation Zrotation Yrotation
	JOINT abdomen
	{
		OFFSET 0.000000 3.402643 0.000000 
		CHANNELS 3 Xrotation Zrotation Yrotation
		JOINT chest
		{
			OFFSET 0.000000 8.438565 -0.680529 
			CHANNELS 3 Xrotation Zrotation Yrotation
			JOINT neck
			{
				OFFSET 0.000000 10.207942 -0.272212 
				CHANNELS 3 Xrotation Zrotation Yrotation
				JOINT head
				{
					OFFSET 0.000000 3.130431 0.000000 
					CHANNELS 3 Xrotation Zrotation Yrotation
					End Site
					{
						OFFSET 0.000000 3.130435 0.000000 
					}
				}
			}
			JOINT lCollar
			{
				OFFSET 3.470700 6.669187 -0.816635 
				CHANNELS 3 Yrotation Zrotation Xrotation
				JOINT lShldr
				{
					OFFSET 3.198488 0.000000 0.000000 
					CHANNELS 3 Zrotation Yrotation Xrotation
					JOINT lForeArm
					{
						OFFSET 10.139888 0.000000 0.000000 
						CHANNELS 3 Yrotation Zrotation Xrotation
						JOINT lHand
						{
							OFFSET 8.370511 0.000000 0.000000 
							CHANNELS 3 Zrotation Yrotation Xrotation
							End Site
							{
								OFFSET 4.083176 0.000000 0.000000 
							}
						}
					}
				}
			}
			JOINT rCollar
			{
				OFFSET -3.470700 6.669187 -0.816635 
				CHANNELS 3 Yrotation Zrotation Xrotation
				JOINT rShldr
				{
					OFFSET -3.198488 0.000000 0.000000 
					CHANNELS 3 Zrotation Yrotation Xrotation
					JOINT rForeArm
					{
						OFFSET -10.139888 0.000000 0.000000 
						CHANNELS 3 Yrotation Zrotation Xrotation
						JOINT rHand
						{
							OFFSET -8.370511 0.000000 0.000000 
							CHANNELS 3 Zrotation Yrotation Xrotation
							End Site
							{
								OFFSET -4.083176 0.000000 0.000000 
							}
						}
					}
				}
			}
		}
	}
	JOINT lThigh
	{
		OFFSET 5.308129 -1.633274 1.361059 
		CHANNELS 3 Xrotation Zrotation Yrotation
		JOINT lShin
		{
			OFFSET -2.041588 -20.007561 0.000000 
			CHANNELS 3 Xrotation Zrotation Yrotation
			JOINT lFoot
			{
				OFFSET 0.000000 -19.190928 -1.224953 
				CHANNELS 3 Xrotation Yrotation Zrotation
				End Site
				{
					OFFSET 0.000000 -2.449906 4.627600 
				}
			}
		}
	}
	JOINT rThigh
	{
		OFFSET -5.308129 -1.633274 1.361059 
		CHANNELS 3 Xrotation Zrotation Yrotation
		JOINT rShin
		{
			OFFSET 2.041588 -20.007561 0.000000 
			CHANNELS 3 Xrotation Zrotation Yrotation
			JOINT rFoot
			{
				OFFSET 0.000000 -19.190928 -1.224953 
				CHANNELS 3 Xrotation Yrotation Zrotation
				End Site
				{
					OFFSET 0.000000 -2.449906 4.627600 
				}
			}
		}
	}
}
MOTION
Frames: 13
Frame Time: 0.011111
12.590659 52.926441 105.401688 171.777679 -176.968323 1.759513 5.565644 -5.062178 -4.683957 -5.582352 1.627123 -1.285032 -13.958659 -1.987971 -4.145166 19.698978 -0.183741 -8.717884 1.452834 -1.250150 0.768655 -69.020554 -42.590897 36.464073 -65.101166 10.183252 13.644028 6.992188 16.005859 -32.341057 -6.408587 0.914528 1.823621 79.521751 12.882472 -10.140480 49.020344 -7.772725 6.828378 -7.001954 -15.996095 29.443361 7.566427 -4.461921 -3.817210 21.143778 -5.321167 -1.458800 -20.673933 -2.235412 -0.856179 -34.437618 -6.669610 8.244439 28.921398 5.253252 2.099628 -15.124134 -8.406818 -1.513433 
12.571030 52.917072 104.894669 171.779480 -177.120468 1.925050 5.585462 -4.896101 -4.438526 -4.996159 1.446069 -1.214939 -14.665367 -1.640969 -4.295267 19.987738 0.051723 -8.932537 1.452834 -1.250150 0.768655 -68.598976 -43.570198 37.561546 -65.573944 10.195830 13.860473 6.992188 16.005859 -32.487537 -6.408587 0.914528 1.823621 80.149811 13.561728 -11.479678 48.967625 -7.754591 6.802339 -7.001954 -15.996095 28.808594 8.795290 -4.188046 -3.799050 19.737333 -5.324445 -1.324911 -19.755720 -2.169142 -0.852020 -34.104546 -6.386541 9.596455 26.177670 5.278008 1.877069 -16.586124 -9.228133 -1.984331 
12.573143 52.902271 104.390068 171.819427 -177.159302 2.065312 5.549319 -4.646997 -5.259797 -4.566633 1.822433 -1.444311 -15.470450 -2.328071 -3.611701 21.093578 0.928648 -7.618738 1.452834 -1.250150 0.768655 -68.633911 -44.009441 37.148560 -66.036606 10.205927 14.078328 6.992188 16.005859 -32.419182 -6.408587 0.914528 1.823621 79.556816 13.673680 -9.833286 49.342480 -7.853327 6.950269 -7.001954 -15.996095 29.404295 9.901621 -3.945061 -3.078593 18.576019 -5.301326 -1.245575 -18.555782 -2.609852 -1.060671 -33.901379 -6.181677 11.321609 23.913797 5.297469 1.692062 -17.138088 -10.382737 -2.363581 
12.580692 52.890503 103.881836 171.879288 -177.237244 2.208833 5.658185 -4.389147 -5.813893 -4.469207 2.193711 -1.602708 -14.610710 -2.153292 -3.687647 19.263966 -0.101361 -7.889854 1.452834 -1.250150 0.768655 -68.676949 -44.302147 37.148808 -66.529129 10.206784 14.299082 6.992188 16.005859 -32.175041 -6.408587 0.914528 1.823621 78.957146 13.295647 -7.452830 50.030495 -8.027728 7.224095 -7.001954 -15.996095 31.484379 11.004495 -3.681242 -2.439283 17.395479 -5.291589 -1.138716 -17.390522 -2.959590 -1.210693 -33.595673 -5.986665 12.958489 21.633434 5.296819 1.493490 -17.993303 -11.490046 -2.823831 
12.569519 52.883251 103.366959 171.899521 -177.076004 2.605510 5.764410 -4.575028 -5.698746 -4.654730 2.081789 -1.568873 -13.812709 -1.700506 -4.087539 18.238289 -0.415597 -8.587930 1.452834 -1.250150 0.768655 -68.342712 -44.362873 38.377094 -67.045273 10.208658 14.542293 6.992188 16.005859 -31.969963 -6.408587 0.914528 1.823621 79.368912 12.729412 -7.035092 50.584396 -8.165659 7.442007 -7.001954 -15.996095 32.919922 12.102344 -3.679810 -2.497664 16.291157 -5.281466 -1.064569 -16.363522 -2.966333 -1.236002 -33.440365 -6.201603 14.520106 19.835791 5.296857 1.343759 -19.528395 -12.442432 -3.469442 
12.553816 52.858791 102.836990 171.929779 -176.855865 3.078809 5.745836 -4.655549 -5.949006 -4.410427 2.009299 -1.637078 -13.715446 -1.816650 -4.100610 18.048077 0.066909 -8.584783 1.452834 -1.250150 0.768655 -68.148567 -44.598488 39.039860 -67.549316 10.203021 14.766691 6.992188 16.005859 -31.833244 -6.408587 0.914528 1.823621 79.632652 13.009849 -7.771090 50.615730 -8.173062 7.462497 -7.001954 -15.996095 32.519531 13.139087 -3.699849 -2.233238 15.372894 -5.281106 -0.960162 -15.203263 -3.406174 -1.375596 -33.336891 -6.494354 15.882181 18.516260 5.296753 1.242611 -21.219946 -13.210953 -4.158443 
12.550193 52.806553 102.310638 171.971359 -176.839172 3.463327 5.734140 -4.493444 -6.321245 -3.990469 2.157261 -1.740296 -14.344890 -2.217702 -3.858499 18.879826 0.736908 -8.103464 1.452834 -1.250150 0.768655 -68.075119 -45.028652 39.420174 -68.009087 10.191148 14.977509 6.992188 16.005859 -31.676992 -6.408587 0.914528 1.823621 79.602524 13.738244 -9.282533 50.302502 -8.098223 7.336140 -7.001954 -15.996095 30.585939 13.989978 -3.485413 -1.726161 14.712241 -5.272311 -0.903611 -13.985133 -4.088801 -1.534979 -33.276459 -6.504338 16.781162 17.754492 5.287026 1.171975 -22.468983 -13.810932 -4.701350 
12.552307 52.734077 101.789131 171.895172 -176.908676 3.645299 5.627021 -4.323053 -6.378419 -3.834243 2.308388 -1.764163 -14.512864 -2.315732 -3.758615 19.268536 0.840662 -7.910586 1.452834 -1.250150 0.768655 -68.010094 -45.341572 39.895386 -68.374664 10.183881 15.148671 6.992188 16.005859 -31.676992 -6.408587 0.914528 1.823621 79.503464 13.737288 -8.925105 50.584396 -8.165659 7.442007 -7.001954 -15.996095 30.839844 14.574016 -3.270277 -1.566490 14.372154 -5.263025 -0.879318 -12.978792 -4.348533 -1.572829 -33.347580 -6.377146 16.707561 17.447466 5.288583 1.140058 -22.626575 -13.884261 -4.786721 
12.550493 52.662209 101.242554 171.887985 -177.059738 3.801975 5.474265 -4.076281 -6.324288 -3.677940 2.313195 -1.748096 -14.081081 -2.143104 -3.882895 18.861217 0.717470 -8.117069 1.452834 -1.250150 0.768655 -67.933601 -45.527611 40.275730 -68.705780 10.170518 15.299111 6.992188 16.005859 -31.852772 -6.408587 0.914528 1.823621 79.525291 13.235194 -7.146708 51.369305 -8.351403 7.762785 -7.001954 -15.996095 33.105473 15.056035 -2.978078 -1.360561 14.369046 -5.271661 -0.880475 -12.126757 -4.545168 -1.604401 -33.148415 -6.191894 15.724905 17.446514 5.291479 1.130767 -22.138857 -13.490922 -4.506222 
12.559253 52.588226 100.675735 172.095627 -177.182053 3.989485 5.547355 -3.786291 -6.572883 -3.678000 2.488942 -1.816527 -13.644083 -2.336163 -3.864890 18.669312 0.893970 -8.073130 1.452834 -1.250150 0.768655 -68.059860 -45.380325 40.296093 -69.027161 10.157990 15.448377 6.992188 16.005859 -32.233635 -6.408587 0.914528 1.823621 79.284096 13.090013 -6.837937 51.620338 -8.406455 7.860741 -7.001954 -15.996095 33.417969 15.530757 -2.684537 -0.985983 14.750514 -5.281659 -0.906291 -11.402237 -4.963792 -1.634709 -32.604588 -5.996297 14.929761 17.744322 5.286910 1.171592 -21.959940 -12.975380 -4.317080 
12.577975 52.501553 100.101677 172.330414 -177.219376 4.010136 5.845350 -3.624913 -6.436888 -3.541245 2.600636 -1.781075 -14.101772 -2.376539 -3.883938 19.057985 0.941916 -8.121313 1.452834 -1.250150 0.768655 -68.101158 -45.526558 40.599072 -69.466278 10.137962 15.658432 6.992188 16.005859 -32.702381 -6.408587 0.914528 1.823621 79.367607 13.661154 -7.897371 51.464554 -8.378268 7.799145 -7.001954 -15.996095 32.421875 15.994438 -2.519304 -0.861166 15.365658 -5.271867 -0.958501 -10.999364 -5.274920 -1.702787 -32.093998 -5.742579 14.434355 18.372286 5.300692 1.198255 -21.375238 -12.484652 -3.999868 
12.578579 52.426361 99.524002 172.429977 -177.240814 4.218360 5.722352 -3.381892 -6.790081 -3.639008 2.763630 -1.892879 -13.589446 -2.570157 -3.729473 19.089087 0.873478 -7.830168 1.452834 -1.250150 0.768655 -68.269493 -44.812572 40.388271 -70.108116 10.101505 15.958450 6.992188 16.005859 -32.887928 -6.408587 0.914528 1.823621 79.034302 13.484911 -7.533779 51.579247 -8.401407 7.849656 -7.001954 -15.996095 32.705078 16.285645 -2.333562 -1.068552 16.101955 -5.292728 -1.019022 -10.512249 -5.523863 -1.735407 -31.732092 -5.596079 13.752823 19.155130 5.301126 1.268317 -19.932224 -12.442516 -3.570853 
12.580389 52.373516 98.943596 172.579254 -177.260666 4.521964 5.968077 -3.184810 -6.719839 -3.658495 2.596972 -1.874279 -13.886213 -2.333422 -3.940500 19.500521 0.706209 -8.233999 1.452834 -1.250150 0.768655 -68.093964 -44.960175 41.002335 -70.331352 10.084375 16.058422 6.992188 16.005859 -32.848866 -6.408587 0.914528 1.823621 79.395210 13.639076 -7.769240 51.798977 -8.448768 7.930094 -7.001954 -15.996095 32.929691 16.466774 -2.069457 -1.142783 16.958282 -5.314478 -1.085382 -9.571145 -5.805814 -1.712053 -31.331795 -5.439763 13.058358 20.006720 5.301626 1.360669 -17.951353 -13.065784 -3.181889 
